<svg viewBox="0 0 16 16" xmlns="http://www.w3.org/2000/svg">
    <symbol id="more">
        <path d="M8.5 5C9.32843 5 10 4.32843 10 3.5C10 2.67157 9.32843 2 8.5 2C7.67157 2 7 2.67157 7 3.5C7 4.32843 7.67157 5 8.5 5Z"  />
        <path d="M8.5 9.5C9.32843 9.5 10 8.82843 10 8C10 7.17157 9.32843 6.5 8.5 6.5C7.67157 6.5 7 7.17157 7 8C7 8.82843 7.67157 9.5 8.5 9.5Z"  />
        <path d="M8.5 14C9.32843 14 10 13.3284 10 12.5C10 11.6716 9.32843 11 8.5 11C7.67157 11 7 11.6716 7 12.5C7 13.3284 7.67157 14 8.5 14Z"  />
    </symbol>
    <symbol id="edit">
        <path d="M13.6264 3.46012L12.539 2.37263C12.0422 1.87578 11.2339 1.8758 10.737 2.37263C10.2692 2.84046 3.12416 9.98605 2.64666 10.4636C2.5958 10.5144 2.56172 10.582 2.54958 10.6481L2.00588 13.5844C1.98481 13.6982 2.02109 13.8152 2.10296 13.897C2.18492 13.979 2.30187 14.0152 2.41557 13.9941L5.35156 13.4504C5.41941 13.4377 5.48612 13.4033 5.53613 13.3533L13.6264 5.2623C14.1244 4.7643 14.1245 3.95819 13.6264 3.46012ZM2.79033 13.2096L3.11923 11.4334L4.56641 12.8807L2.79033 13.2096ZM5.28756 12.6075L3.39242 10.7122L10.3114 3.79268L12.2065 5.68795L5.28756 12.6075ZM13.1293 4.76512L12.7037 5.19077L10.8086 3.2955L11.2342 2.86985C11.4568 2.64715 11.8192 2.64713 12.0419 2.86985L13.1293 3.95735C13.3525 4.18059 13.3525 4.54185 13.1293 4.76512Z"  />
    </symbol>
    <symbol id="delete">
        <path d="M9.53122 6.34766C9.37599 6.34766 9.25019 6.47346 9.25019 6.62869V11.9401C9.25019 12.0952 9.37599 12.2211 9.53122 12.2211C9.68644 12.2211 9.81225 12.0952 9.81225 11.9401V6.62869C9.81225 6.47346 9.68644 6.34766 9.53122 6.34766Z"  />
        <path d="M6.21506 6.34766C6.05983 6.34766 5.93402 6.47346 5.93402 6.62869V11.9401C5.93402 12.0952 6.05983 12.2211 6.21506 12.2211C6.37028 12.2211 6.49609 12.0952 6.49609 11.9401V6.62869C6.49609 6.47346 6.37028 6.34766 6.21506 6.34766Z"  />
        <path d="M3.79817 5.57251V12.4965C3.79817 12.9057 3.94824 13.29 4.21039 13.5658C4.47133 13.8423 4.83447 13.9993 5.21452 14H10.5317C10.9118 13.9993 11.275 13.8423 11.5358 13.5658C11.798 13.29 11.948 12.9057 11.948 12.4965V5.57251C12.4692 5.43419 12.8068 4.93075 12.7371 4.39603C12.6673 3.86142 12.2118 3.4615 11.6726 3.46139H10.2337V3.1101C10.2354 2.81469 10.1186 2.53103 9.90946 2.32234C9.70034 2.11377 9.41623 1.99762 9.12082 2.00004H6.62537C6.32996 1.99762 6.04586 2.11377 5.83673 2.32234C5.62761 2.53103 5.5108 2.81469 5.51245 3.1101V3.46139H4.0736C3.53438 3.4615 3.07891 3.86142 3.00909 4.39603C2.93939 4.93075 3.27706 5.43419 3.79817 5.57251ZM10.5317 13.4379H5.21452C4.73402 13.4379 4.36023 13.0251 4.36023 12.4965V5.59721H11.386V12.4965C11.386 13.0251 11.0122 13.4379 10.5317 13.4379ZM6.07451 3.1101C6.07264 2.96377 6.13017 2.82293 6.23402 2.71963C6.33776 2.61633 6.47893 2.55957 6.62537 2.5621H9.12082C9.26727 2.55957 9.40844 2.61633 9.51218 2.71963C9.61603 2.82282 9.67355 2.96377 9.67168 3.1101V3.46139H6.07451V3.1101ZM4.0736 4.02345H11.6726C11.952 4.02345 12.1785 4.24992 12.1785 4.5293C12.1785 4.80868 11.952 5.03515 11.6726 5.03515H4.0736C3.79422 5.03515 3.56775 4.80868 3.56775 4.5293C3.56775 4.24992 3.79422 4.02345 4.0736 4.02345Z"  />
        <path d="M7.87314 6.34766C7.71791 6.34766 7.59211 6.47346 7.59211 6.62869V11.9401C7.59211 12.0952 7.71791 12.2211 7.87314 12.2211C8.02836 12.2211 8.15417 12.0952 8.15417 11.9401V6.62869C8.15417 6.47346 8.02836 6.34766 7.87314 6.34766Z"  />
    </symbol>
    <symbol id="copy">
        <path d="M9.72269 4.09871H4.14415C3.62071 4.09871 3.19556 4.52386 3.19556 5.04731V13.0514C3.19556 13.5749 3.62071 14 4.14415 14H9.72269C10.2461 14 10.6713 13.5749 10.6713 13.0514V5.04731C10.6688 4.52386 10.2437 4.09871 9.72269 4.09871ZM10.0053 13.0489C10.0053 13.2062 9.87752 13.334 9.72024 13.334H4.1417C3.98442 13.334 3.85663 13.2062 3.85663 13.0489V5.04731C3.85663 4.89003 3.98442 4.76224 4.1417 4.76224H9.72024C9.87752 4.76224 10.0053 4.89003 10.0053 5.04731V13.0489Z"  />
        <path d="M11.8558 2H6.27727C5.75382 2 5.32867 2.42515 5.32867 2.9486C5.32867 3.13291 5.47612 3.28036 5.66044 3.28036C5.84475 3.28036 5.9922 3.13291 5.9922 2.9486C5.9922 2.79132 6.11999 2.66353 6.27727 2.66353H11.8558C12.0131 2.66353 12.1409 2.79132 12.1409 2.9486V10.9527C12.1409 11.11 12.0131 11.2378 11.8558 11.2378C11.6715 11.2378 11.5241 11.3852 11.5241 11.5695C11.5241 11.7538 11.6715 11.9013 11.8558 11.9013C12.3793 11.9013 12.8044 11.4761 12.8044 10.9527V2.9486C12.8044 2.42515 12.3793 2 11.8558 2Z"  />
    </symbol>
    <symbol id="close">
        <path d="M4.85015 4.85016L11.1498 11.1498" stroke="currentColor"/>
        <path d="M11.1499 4.85016L4.85018 11.1498" stroke="currentColor"/>
    </symbol>
    <symbol id="caution">
        <path d="M13.9485 12.8745L8.36395 2.72502C8.29095 2.59233 8.15145 2.50989 8.00001 2.50989C7.84855 2.50989 7.70912 2.59233 7.63608 2.72502L2.05147 12.8745C1.98066 13.0031 1.98309 13.1597 2.05782 13.2861C2.13256 13.4125 2.2685 13.4901 2.41538 13.4901H13.5846C13.7315 13.4901 13.8675 13.4125 13.9422 13.2861C14.0169 13.1597 14.0193 13.0031 13.9485 12.8745ZM3.11807 12.6593L8.00001 3.78689L12.882 12.6593H3.11807Z"/>
        <path d="M7.47946 6.75475V9.75714C7.47946 10.0446 7.71253 10.2777 8.00001 10.2777C8.28745 10.2777 8.52056 10.0446 8.52056 9.75714V6.75475C8.52056 6.46728 8.28745 6.23421 8.00001 6.23421C7.71253 6.23421 7.47946 6.46731 7.47946 6.75475Z"/>
        <path d="M8.00002 10.8181C7.69773 10.8181 7.45172 11.064 7.45172 11.3664C7.45172 11.6687 7.69773 11.9147 8.00002 11.9147C8.30231 11.9147 8.54832 11.6687 8.54832 11.3664C8.54832 11.064 8.30228 10.8181 8.00002 10.8181Z"/>
    </symbol>
</svg>
