<svg fill="none" height="40" viewBox="0 0 95 40" width="95" xmlns="http://www.w3.org/2000/svg"><g clip-rule="evenodd" fill-rule="evenodd"><path d="m46.1934 34.6961c.4949.4079 1.1213.7439 1.8641.7439.6558 0 1.1659-.336 1.1659-.8602 0-.4514-.5243-.6851-1.1365-.9473-.8299-.3491-1.7912-.7428-1.7912-1.8064 0-1.3257 1.2822-2.1707 2.5785-2.1707 1.0191 0 1.7042.335 2.2426.7287l-.7428.9613c-.426-.303-.9336-.4706-1.4563-.4807-.4655 0-1.2386.1893-1.2386.8299 0 .423.5829.6122 1.1941.8895.8167.3643 1.7346.8299 1.7346 1.937 0 1.268-1.1517 2.1282-2.5351 2.1282-.9917 0-1.8793-.2925-2.6372-.9331zm6.8178-2.4176h3.5693c-.1315-.8885-.7134-1.4138-1.6323-1.4138-.8885 0-1.6313.5688-1.937 1.4138zm4.9537.5667c0 .1761-.0303.4665-.0587.5981h-5.0842c.0435 1.1223.7721 1.9967 1.9956 1.9967.6558 0 1.2387-.2632 1.7771-.7145l.8298.8885c-.6547.5829-1.3682 1.0343-2.5927 1.0343-.757 0-1.5443-.2034-2.1859-.7135-.757-.5971-1.2083-1.4997-1.2083-2.535 0-2.0685 1.4856-3.7444 3.5551-3.7444 1.8348 0 2.9722 1.3561 2.9722 3.1908zm7.0071 2.4197c-.67.8744-1.6759 1.3844-2.9004 1.3844-1.8924 0-3.3942-1.3702-3.3942-3.2485 0-2.0847 1.5888-3.7444 3.7008-3.7444 1.2387 0 2.2295.5819 2.8559 1.5585l-1.0788.7721c-.3927-.5829-1.0049-1.02-1.8216-1.02-1.2377 0-2.2719 1.1071-2.2719 2.3599 0 1.1942.8298 2.0108 2.025 2.0108.8015 0 1.4421-.3946 1.8792-.933zm.844-1.4421c0-.3066.0435-.7873.1164-1.1941l.4958-2.8276h1.3986l-.4959 2.8265c-.0713.3895-.1103.7841-.1164 1.18 0 .9766.6983 1.5301 1.5443 1.5301.7722 0 1.5302-.4078 2.0837-1.0929l.7722-4.4437h1.3986l-1.18 6.7025h-1.3257l.1163-.584c-.5393.4524-1.2245.7287-1.9956.7287-.3919-.001-.7793-.083-1.1379-.241-.3586-.1579-.6806-.3884-.9458-.6769-.4709-.5236-.7306-1.2034-.7286-1.9076zm12.3685-2.8123c-.1292-.0289-.2612-.0435-.3936-.0435-.8734 0-1.7042.5829-2.0979 1.1648l-.757 4.3718h-1.3985l1.18-6.7025h1.3257l-.1316.6416c.4959-.4513 1.2245-.7873 1.9096-.7873.247 0 .4797.0294.7418.1164zm2.3894-4.5601c.51 0 .9178.4079.9178.9179.0003.1199-.0233.2387-.0696.3493-.0462.1107-.114.211-.1995.2951-.0855.084-.1869.1502-.2983.1946-.1114.0443-.2306.066-.3504.0637-.1192.0019-.2375-.0201-.3479-.0648s-.2108-.1111-.2951-.1953-.1508-.1844-.1956-.2948-.0669-.2287-.0651-.3478c0-.51.3936-.9179.9037-.9179zm.3056 3.3497-1.179 6.7025h-1.3986l1.18-6.7015h1.3986zm5.2158 6.7025c-.2773.1022-.67.1467-.9908.1467-1.1799 0-2.3893-.7286-2.3893-2.1566 0-.1457.0729-.7428.1164-.9614l.4372-2.4915h-1.7487l.2186-1.2387h1.7487l.3349-1.8934h1.3986l-.335 1.8924h2.1708l-.2186 1.2397h-2.1707l-.4666 2.695c-.0587.3501-.1012.6699-.1012.8015 0 .5829.4514.8733 1.0333.8733.2327 0 .51-.0425.6993-.1012zm8.3621-6.7015-6.2501 10.1989h-1.5888l2.5785-4.2109-1.6596-5.988h1.4269l1.1941 4.4144 2.7112-4.4144zm-51.5742-23.81213c-.4321-.1437-1.3419-.23984-2.2527-.23984-2.7313 0-4.8869 1.96529-5.653 3.35374v14.61313h-6.2288v-23.237328h5.989v2.347818c1.3895-1.72342 3.9286-2.82649 6.7561-2.82649.9107 0 1.437.0961392 2.1079.192278zm25.4891 12.98383c-2.7304 3.6412-6.1803 5.2219-10.5399 5.2219-7.1872 0-12.4577-5.3656-12.4577-12.0731 0-6.75501 5.4142-12.1216 12.5052-12.1216 4.0247 0 7.6173 1.86915 9.7739 4.64808l-4.4073 3.87998c-1.2457-1.62931-3.1149-2.77893-5.3666-2.77893-3.5925 0-6.2763 2.82649-6.2763 6.37247 0 3.6412 2.6352 6.325 6.42 6.325 2.5391 0 4.552-1.5342 5.5579-3.0663zm20.0263-10.3486c-.6672-.89479-1.5348-1.62083-2.5332-2.11993s-2.0998-.75737-3.216-.75413c-3.6421 0-5.9899 3.01776-5.9899 6.37146 0 3.6412 2.6352 6.325 6.1326 6.325 2.3479 0 4.4083-1.1506 5.6065-2.8751zm6.2278 15.0918h-5.988v-1.8671c-1.9167 1.6293-4.1208 2.3478-6.4686 2.3478-3.4509 0-6.7075-1.5342-8.7679-3.9285-1.8216-2.109-2.9712-4.9831-2.9712-8.1466 0-6.85013 5.0802-12.1216 11.4051-12.1216 2.6342 0 4.982.862217 6.8036 2.34782v-1.869148h5.988v23.237328zm-82.2659-23.716c-1.609 0-3.12703.286394-4.51346.801498 1.70352 1.319292 3.07196 3.021632 3.99436 4.968882.171-.01215.343-.02024.5191-.02024 3.6412 0 6.1327 2.87406 6.1327 6.37146 0 3.4975-2.4915 6.325-6.1327 6.325-.2935 0-.5778-.0202-.8561-.0567-1.037 1.9026-2.51243 3.5306-4.30402 4.7493 1.62928.7038 3.38642 1.0635 5.16112 1.0565 7.0425 0 12.3605-5.3666 12.3605-12.073 0-6.70854-5.318-12.1227-12.3615-12.1227z" fill="#10111d"/><g fill="#0080ff"><path d="m5.01447 21.9076c.55659.3947 1.14962.7448 1.77503 1.0454 1.70603-1.2221 3.10662-2.8218 4.0925-4.6744-.91354-.2078-1.76382-.6319-2.47938-1.2367-.75754 1.8515-1.91445 3.5129-3.38815 4.8657zm6.18423-16.05424c-.88-1.8938-2.18158-3.56123-3.80504-4.874768-.67352.282338-1.3204.624408-1.93291 1.022108 1.40201 1.41702 2.47753 3.12321 3.15135 4.99924.75597-.58715 1.6439-.98075 2.5866-1.14658z"/><path d="m8.08682 7.46242c-.61597-1.9308-1.6533-3.70059-3.03699-5.1814-.65375.46248-1.25487.98669-1.79932 1.56454 1.6009 2.32541 2.45293 5.08453 2.44194 7.90774 0 3.122-1.0039 5.991-2.73542 8.2993.506.5758 1.06664 1.1021 1.67687 1.5737 1.45555-1.4192 2.57398-3.147 3.27278-5.056-1.0636-1.1425-1.67889-2.7121-1.67889-4.4487 0-1.8317.68512-3.49134 1.85903-4.65918z"/><path d="m1.95318 11.7533c0 1.8266-.34711 3.5662-.979608 5.1581.418968.9756.964428 1.8823 1.617168 2.702 1.53822-2.2284 2.4227-4.9324 2.4227-7.8601 0-2.75264-.78328-5.31298-2.15453-7.46953-.69321.81364-1.27612 1.72038-1.73152 2.69898.53636 1.48763.82579 3.09365.82579 4.77055z"/><path d="m.624421 15.9885c.420989-1.3338.648689-2.7557.648689-4.2362 0-1.3338-.18722-2.6221-.53231-3.84358-.492707 1.34983-.74347445 2.77598-.74077849 4.21288 0 1.3551.21960249 2.6545.62439949 3.8659"/></g></g></svg>